<?xml version="1.0" encoding="UTF-8" standalone="no"?>
<!-- Created with Inkscape (http://www.inkscape.org/) -->

<svg
   width="384"
   height="128"
   viewBox="0 0 101.6 33.866664"
   version="1.1"
   id="svg1"
   xmlns="http://www.w3.org/2000/svg"
   xmlns:svg="http://www.w3.org/2000/svg">
  <defs
     id="defs1" />
  <g
     id="layer1">
    <path
       style="opacity:0.6;fill:#404040;fill-opacity:1;stroke-width:0.1"
       d="M 17.079691,24.914582 16.018534,24.079204 Q 15.296045,22.814847 14.370355,21.934313 13.467243,21.031201 12.360931,20.4216 l 0.474133,-1.399824 q 0.92569,0.564445 1.761069,1.399824 0.835378,0.835379 1.53529,2.235202 l -0.158044,0.361245 V 11.751724 H 1.9751422 L 1.2300747,10.577679 H 18.885915 l 0.767645,1.174045 h -2.46098 v 13.14028 z M 9.4483942,22.521335 q -1.016001,0 -2.0094243,-0.383822 Q 6.4455467,21.731112 5.5198569,20.782845 4.6167448,19.811999 3.7813662,18.118664 2.9685654,16.402751 2.2686536,13.806304 l 0.9482676,-0.293511 q 0.790223,2.573869 1.6933351,4.10916 0.9256898,1.512712 1.9868464,2.167469 1.0837345,0.654756 2.3480913,0.654756 1.580446,0 2.46098,-0.745068 0.880535,-0.767645 0.790223,-2.190046 -0.04515,-0.880535 -0.361245,-1.422402 -0.293511,-0.564445 -0.722489,-0.835378 -0.428978,-0.270934 -0.857957,-0.270934 -0.293511,0 -0.519289,0.06773 Q 9.809639,15.09324 9.470972,15.251281 9.358083,14.325594 9.0419938,13.64826 8.7484824,12.970926 8.116304,12.474214 7.5067033,11.977502 6.4229689,11.638835 l 2.4609803,-0.04515 q 0.4289782,0.361245 0.8128008,0.948267 0.4064,0.564445 0.654756,1.264357 0.248356,0.699912 0.248356,1.490135 0,0.970846 -0.541867,1.625602 -0.5192896,0.654756 -1.490135,0.654756 -0.9031121,0 -1.5578683,-0.564445 -0.6321784,-0.564445 -0.6321784,-1.580446 0,-1.174046 0.8128008,-1.738491 0.8128009,-0.587023 2.0094243,-0.587023 1.4675566,0 2.4609806,0.677335 1.016001,0.654756 1.512712,1.715912 0.51929,1.061157 0.51929,2.280358 0,0.92569 -0.225778,1.783646 -0.225778,0.835379 -0.72249,1.512713 -0.496712,0.677334 -1.309512,1.061157 Q 10.62244,22.52134 9.4483942,22.52134 Z M 22.221067,25.185516 21.069599,24.553337 V 11.751724 h -1.715913 l -0.745067,-1.174045 h 2.302935 q -0.496711,-0.451556 -0.970845,-0.92569 -0.474134,-0.4967117 -0.92569,-0.9934233 0.609601,-1.5352904 1.512713,-2.5964471 0.925689,-1.0837344 2.077157,-1.6481794 1.174046,-0.564445 2.483558,-0.564445 1.083735,0 2.190047,0.3838226 1.106312,0.3612448 2.167469,1.0385788 1.061157,0.6547562 2.05458,1.5578683 1.016001,0.8805342 1.896535,1.919113 L 32.855211,9.2455886 Q 31.387654,7.7780315 30.100719,6.9652307 28.836362,6.1524298 27.707472,5.8137628 26.60116,5.4750958 25.585159,5.4750958 q -1.12889,0 -2.099735,0.5418672 -0.970846,0.5192895 -1.625602,1.3546681 -0.654756,0.8128008 -0.880534,1.693335 0.2032,0.2709337 0.361244,0.5418673 0.158045,0.2483558 0.31609,0.4967116 0.180622,0.248356 0.361244,0.474134 h 1.941691 l 0.790223,1.174045 H 22.2888 V 25.162938 Z M 34.271276,24.914582 33.300431,24.146937 Q 33.277853,23.243825 33.074653,22.27298 32.871452,21.302134 32.510208,20.399022 32.171541,19.49591 31.697407,18.77342 31.223273,18.050931 30.613672,17.621953 30.02665,17.192974 29.349315,17.192974 q -0.225778,0 -0.428978,0.04516 -0.2032,0.02258 -0.361245,0.112889 l 0.541868,-0.699912 q 0.293511,0.2032 0.4064,0.609601 0.112889,0.383822 0.112889,0.745067 0,0.587023 -0.248356,1.038579 -0.225778,0.451556 -0.677334,0.699912 -0.451556,0.248356 -1.12889,0.248356 -1.196623,0 -1.783646,-0.699912 -0.564445,-0.699912 -0.564445,-1.715913 0,-1.12889 0.745067,-1.783646 0.767646,-0.677334 2.009425,-0.677334 0.993423,0 1.828802,0.361245 0.835378,0.361244 1.490134,1.016001 0.654757,0.632178 1.12889,1.467557 0.474134,0.8128 0.745068,1.73849 0.293511,0.92569 0.361245,1.85138 l -0.180623,-0.248356 q -0.02258,-0.4064 -0.06773,-1.061156 -0.04516,-0.677335 -0.09031,-1.44498 -0.02258,-0.790223 -0.02258,-1.512712 V 11.751724 H 24.472511 L 23.704865,10.577679 H 36.0775 l 0.767645,1.174045 h -2.46098 v 13.14028 z m 11.537259,0 -1.061156,-0.835378 Q 43.934578,22.724536 42.873421,21.731112 41.834842,20.737689 40.52533,20.128089 39.238395,19.518488 37.680527,19.315288 l -0.92569,-2.551292 q 1.377246,-0.903112 2.641603,-1.580446 1.286934,-0.699912 2.596447,-1.286934 1.33209,-0.587023 2.844803,-1.106313 l -0.135467,0.451556 v -1.490135 h -8.398942 l -0.767645,-1.174045 h 12.079123 l 0.767645,1.174045 h -2.46098 v 13.14028 z m -1.106312,-1.896535 v -8.602142 l 0.270934,0.4064 q -1.106313,0.383823 -2.235203,0.903112 -1.12889,0.496712 -2.190046,1.083735 -1.061157,0.587023 -1.986847,1.264357 l -0.270934,-0.541868 q 1.083735,0.248356 2.257781,0.835379 1.196623,0.587023 2.302935,1.625602 1.12889,1.038579 2.009425,2.66418 z M 46.027974,10.103546 44.62815,8.7263001 50.250023,4.775185 50.927357,5.113852 Z m 4.921944,15.08197 -1.151468,-0.632179 V 13.964349 q -0.180622,-0.92569 -0.541867,-1.557868 -0.361245,-0.654757 -1.016001,-0.654757 H 48.082537 L 47.33747,10.577679 h 0.857956 q 0.383823,0 0.790223,0.293511 0.406401,0.270934 0.72249,0.880534 0.316089,0.587023 0.4064,1.557869 l -0.135466,0.06773 q -0.06773,-0.79022 -0.135467,-1.603021 -0.04516,-0.812801 -0.04516,-1.106312 V 8.8843437 l 0.09031,-0.022578 1.038579,0.7450675 0.09031,0.9708458 h 1.670758 l 0.790223,1.174045 h -2.460981 v 13.411214 z m 12.711318,0 -1.151468,-0.632179 v -8.715031 l 0.2032,1.12889 q -1.038579,-1.783646 -1.85138,-2.731913 -0.790223,-0.970846 -1.580446,-1.332091 -0.767645,-0.361245 -1.715913,-0.361245 -0.722489,0 -1.33209,0.270934 -0.587023,0.270934 -0.948268,0.790223 -0.338667,0.51929 -0.338667,1.264357 0,0.835379 0.383823,1.33209 0.4064,0.496712 1.061157,0.496712 0.180622,0 0.361244,-0.02258 0.180623,-0.02258 0.338668,-0.04516 l -0.948268,0.632179 q -0.09031,-0.180623 -0.158045,-0.428978 -0.06773,-0.248356 -0.06773,-0.474134 0,-0.72249 0.451556,-1.174046 0.474134,-0.451556 1.174046,-0.451556 0.835378,0 1.309512,0.496712 0.474134,0.496711 0.474134,1.286934 0,0.835379 -0.541867,1.354668 -0.541868,0.51929 -1.535291,0.51929 -0.699912,0 -1.354668,-0.248356 -0.632178,-0.270934 -1.12889,-0.767645 -0.474134,-0.51929 -0.767645,-1.264357 -0.270934,-0.745067 -0.270934,-1.738491 0,-1.151468 0.451556,-2.032002 0.451556,-0.880534 1.241779,-1.377246 0.812801,-0.496711 1.85138,-0.496711 0.92569,0 1.738491,0.4064 0.8128,0.406401 1.693335,1.444979 0.880534,1.038579 1.986846,2.957692 l -0.06773,0.248356 q -0.02258,-0.383822 -0.04516,-0.880534 -0.02258,-0.519289 -0.04516,-1.083735 -0.02258,-0.587022 -0.02258,-1.12889 V 8.8843437 l 0.09031,-0.022578 1.038579,0.7450675 0.09031,0.9708458 h 1.670757 l 0.790223,1.174045 h -2.46098 v 13.411214 z m 17.846316,-0.270934 -1.061157,-0.835378 q -0.812801,-1.354668 -1.873957,-2.348092 -1.038579,-0.993423 -2.348092,-1.603023 -1.286934,-0.609601 -2.844803,-0.812801 l -0.925689,-2.551292 q 1.377245,-0.903112 2.641602,-1.580446 1.286935,-0.699912 2.596447,-1.286934 1.332091,-0.587023 2.844803,-1.106313 l -0.135467,0.451556 v -1.490135 h -8.398941 l -0.767646,-1.174045 h 12.079124 l 0.767645,1.174045 h -2.46098 v 13.14028 z m -1.106313,-1.896535 v -8.602142 l 0.270934,0.4064 q -1.106312,0.383823 -2.235202,0.903112 -1.12889,0.496712 -2.190047,1.083735 -1.061157,0.587023 -1.986846,1.264357 l -0.270934,-0.541868 q 1.083734,0.248356 2.25778,0.835379 1.196624,0.587023 2.302936,1.625602 1.12889,1.038579 2.009424,2.66418 z m 15.120771,2.167469 -1.151468,-0.632179 v -7.337785 l 0.112889,0.699912 q -0.361244,-0.609601 -0.677334,-0.948268 -0.293511,-0.338667 -0.541867,-0.474133 -0.248356,-0.158045 -0.474134,-0.158045 -0.248355,0 -0.519289,0.180622 -0.248356,0.158045 -0.564445,0.677334 -0.293511,0.51929 -0.745067,1.557869 -0.451556,1.083734 -0.903112,1.761068 -0.428979,0.677334 -0.92569,0.993423 -0.496712,0.293512 -1.174046,0.293512 -0.541867,0 -1.083734,-0.293512 -0.541868,-0.293511 -1.061157,-0.970845 -0.496712,-0.699912 -0.993423,-1.873958 l 0.812801,-0.383822 q 0.361244,0.677334 0.654756,1.016001 0.316089,0.338667 0.587023,0.451556 0.293511,0.112889 0.587022,0.112889 0.474134,0 0.857957,-0.338667 0.4064,-0.338667 0.835378,-1.106312 0.428979,-0.790223 0.948268,-2.099736 0.361245,-0.92569 0.72249,-1.309512 0.383822,-0.406401 0.722489,-0.496712 0.338667,-0.112889 0.587023,-0.112889 0.474134,0 0.903112,0.293512 0.428978,0.293511 0.835379,0.857956 0.4064,0.541867 0.790223,1.309512 h -0.135467 q -0.04516,-0.383822 -0.09031,-0.970845 -0.04516,-0.587023 -0.06773,-1.174046 0,-0.587022 0,-0.948267 v -2.009425 h -8.10543 l -0.02258,-0.225778 q 0.903112,0.203201 1.64818,0.587023 0.767645,0.383823 1.309512,0.993423 0.564445,0.609601 0.857957,1.467558 0.293511,0.857956 0.270933,2.009424 l -0.654756,1.219201 q -0.02258,-1.196623 -0.293512,-2.05458 -0.270933,-0.857956 -0.767645,-1.399823 -0.474134,-0.564445 -1.174045,-0.835379 -0.677334,-0.270934 -1.535291,-0.270934 -0.316089,0 -0.6096,0.02258 -0.270934,0.02258 -0.496712,0.06773 l -1.761069,-2.754491 h 14.224015 l 0.790223,1.174045 h -2.46098 v 13.411214 z m -5.695943,1.512717 q 0,-1.083734 0.790223,-1.761068 0.790223,-0.677334 2.302936,-0.677334 1.196623,0 2.280358,0.428978 1.083734,0.428978 2.032002,1.174046 0.970845,0.745067 1.761068,1.670757 0.790223,0.948268 1.377246,1.986846 l -0.677334,0.496712 q -0.835378,-1.309512 -1.873957,-2.325513 -1.038579,-0.993424 -2.302936,-1.580446 -1.286935,-0.564445 -2.822225,-0.564445 -0.903112,0 -1.286935,0.270933 -0.4064,0.293512 -0.4064,0.790223 0,0.51929 0.383822,0.835379 0.383823,0.338667 1.083735,0.338667 0.677334,0 1.174046,-0.316089 0.474133,-0.31609 0.745067,-0.993424 0.248356,-0.677334 0.248356,-1.73849 l 1.174045,0.654756 q 0,1.106312 -0.361244,1.964269 -0.361245,0.857956 -1.083735,1.33209 -0.745067,0.496711 -1.851379,0.496711 -1.106313,0 -1.896536,-0.699911 -0.790223,-0.677334 -0.790223,-1.783647 z"
       id="text1"
       aria-label="অনির্বাণ বসু" />
  </g>
</svg>
