<?xml version="1.0" encoding="UTF-8" standalone="no"?>
<!-- Created with Inkscape (http://www.inkscape.org/) -->

<svg
   width="640"
   height="96"
   viewBox="0 0 169.33333 25.4"
   version="1.1"
   id="svg1"
   xmlns="http://www.w3.org/2000/svg"
   xmlns:svg="http://www.w3.org/2000/svg">
  <defs
     id="defs1" />
  <g
     id="layer1">
    <path
       style="opacity:0.6;fill:#404040;stroke-width:0.1"
       d="M 24.041755,5.3735033 Q 23.861132,5.2154587 23.770821,5.0799919 23.703088,4.9219473 23.68051,4.8767917 23.499888,4.5155469 23.228954,4.2446133 22.95802,3.9736797 22.280686,3.6350126 21.987175,3.4995458 21.987175,3.3189234 q 0,-0.2032002 0.338667,-0.2032002 0.2032,0 0.4064,0.090311 1.377246,0.5192894 2.009425,1.0385789 0.632178,0.4967116 0.632178,0.8805342 0,0.225778 -0.2032,0.3838226 -0.180622,0.1354668 -0.451556,0.1354668 -0.383823,0 -0.677334,-0.2709334 z M 22.100064,6.773327 Q 21.964597,6.5927045 21.82913,6.2766153 21.671086,5.8927927 21.400152,5.5992813 21.151796,5.3057699 20.406729,4.9219473 20.135795,4.7864805 20.135795,4.5832803 q 0,-0.090311 0.06773,-0.1354668 0.09031,-0.067733 0.248356,-0.067733 0.225778,0 0.428978,0.090311 1.33209,0.5870228 1.919113,1.12889 0.6096,0.5418672 0.6096,0.9482676 0,0.2483559 -0.2032,0.4064005 -0.180622,0.1354668 -0.451556,0.1354668 -0.428978,0 -0.654756,-0.3160892 z M 7.4244935,19.462051 q -0.3838226,0.180622 -0.8128008,0.180622 -0.2032002,0 -0.338667,-0.04515 -0.112889,-0.06773 -0.112889,-0.158045 0,-0.248356 0.6999118,-0.541867 2.3932469,-1.038579 3.9736925,-2.754492 1.603024,-1.73849 2.754492,-4.605871 0.541867,-1.354668 0.541867,-2.5964472 0,-1.354668 -0.632178,-1.7836462 -0.248356,-0.1806224 -0.248356,-0.3160892 0,-0.090311 0.112889,-0.1354669 0.112889,-0.067733 0.270934,-0.067733 0.361245,0 0.835378,0.2257781 0.474134,0.2032002 0.948268,0.677334 0.609601,0.6096006 0.609601,1.4901348 0,0.7902231 -0.474134,1.8965346 -0.451556,1.083735 -1.377246,2.619025 -1.196623,1.986847 -3.002848,3.544715 -1.7836458,1.557868 -3.7479145,2.370669 z M 24.267533,17.768716 Q 23.996599,15.781869 23.27411,13.907912 22.55162,12.033955 21.648508,10.588975 20.745396,9.143996 19.864862,8.3989286 19.413306,8.015106 19.413306,7.7215946 q 0,-0.1806224 0.180622,-0.1806224 0.293512,0 0.812801,0.3838226 1.151468,0.8353786 2.348091,2.3255132 1.196624,1.490135 2.077158,3.18347 0.903112,1.670757 1.174046,3.048003 0.04516,0.270934 0.04516,0.406401 0,0.654756 -0.383822,1.151468 -0.383823,0.474133 -0.790223,0.474133 -0.225779,0 -0.406401,-0.180622 -0.158045,-0.180622 -0.2032,-0.564445 z m 8.076503,2.686758 q -0.474134,0.158045 -0.880535,0.158045 -0.474134,0 -0.474134,-0.2032 0,-0.158045 0.293512,-0.338667 0.316089,-0.203201 0.948268,-0.383823 2.66418,-0.790223 4.899382,-2.844803 2.25778,-2.05458 3.725337,-4.470404 1.490135,-2.4158251 2.032002,-4.3123604 0.02258,-0.090311 0.02258,-0.225778 0,-0.2935114 -0.2032,-0.451556 -0.2032,-0.1806224 -0.564445,-0.1580446 l -2.438402,0.1354668 q -0.745068,0.045156 -1.12889,0.1354668 -0.383823,0.067733 -0.880535,0.225778 l -0.6096,0.1806224 q -0.270934,0.090311 -0.587023,0.090311 -0.880534,0 -1.603024,-0.8579564 -0.587023,-0.7450675 -0.587023,-1.2192013 0,-0.2483558 0.2032,-0.2483558 0.225778,0 0.541868,0.2935114 0.6096,0.5870228 2.573869,0.5870228 0.903112,0 1.964269,-0.112889 2.731913,-0.2032002 3.973693,-0.9934232 0.180622,-0.112889 0.383822,-0.112889 0.383823,0 0.857957,0.2935114 0.474133,0.2709336 0.8128,0.6547562 0.338667,0.3838226 0.338667,0.6773341 0,0.2935114 -0.361244,0.4289782 -0.31609,0.112889 -0.587023,0.5418672 -0.270934,0.4289782 -0.745068,1.4224014 -0.970845,1.941691 -1.73849,3.115737 -0.158045,0.248356 -0.158045,0.474134 0,0.4064 0.451556,0.6096 1.083735,0.51929 2.302936,1.512713 1.219201,0.993423 2.122313,2.167469 0.903112,1.151468 1.106312,2.144891 0.04516,0.270933 0.04516,0.361245 0,0.428978 -0.225778,0.654756 -0.225778,0.225778 -0.564445,0.225778 -0.406401,0 -0.835379,-0.316089 -0.4064,-0.31609 -0.6096,-0.880535 -0.699912,-1.783646 -1.625602,-3.002847 -0.92569,-1.241779 -2.325514,-2.190047 -0.293511,-0.180622 -0.496711,-0.180622 -0.293512,0 -0.474134,0.248356 -1.580446,2.032002 -3.815648,3.657603 -2.212625,1.625602 -5.080005,2.506136 z m 53.812776,1.106312 q -0.06773,-0.496711 -0.6096,-0.835378 -0.51929,-0.361245 -1.535291,-0.835379 -0.316089,-0.112889 -0.857956,-0.383822 -0.451556,-0.225778 -0.451556,-0.541868 0,-0.270933 0.338667,-0.270933 0.248356,0 0.564445,0.158044 1.354668,0.654757 2.032002,0.654757 1.038579,0 1.12889,-1.309513 0.158045,-2.370669 0.2032,-5.125161 0,-0.225778 -0.06773,-0.338667 -0.06773,-0.135466 -0.180623,-0.135466 -0.2032,0 -0.361244,0.361244 -1.016001,1.964269 -2.664181,3.612448 -1.648179,1.625602 -3.454403,2.731914 -1.783647,1.106313 -3.228626,1.580446 -0.225778,0.06773 -0.383822,0.06773 -0.180623,0 -0.293512,-0.06773 -0.09031,-0.06773 -0.09031,-0.180622 0,-0.316089 0.609601,-0.541867 1.625601,-0.564445 3.296358,-1.828802 1.670758,-1.264357 3.070581,-3.160892 1.422402,-1.919113 2.190047,-4.244627 0.04516,-0.180622 0.04516,-0.225778 0,-0.180622 -0.135467,-0.293511 -0.112889,-0.112889 -0.316089,-0.112889 -1.196624,0 -2.889959,0.112889 -1.670757,0.112889 -2.46098,0.293511 -0.270934,0.06773 -0.496712,0.06773 -0.812801,0 -1.33209,-0.564445 Q 77.306315,9.6407076 77.14827,8.8730624 77.125692,8.805329 77.125692,8.69244 q 0,-0.1580446 0.06773,-0.2483558 0.06773,-0.112889 0.180622,-0.112889 0.2032,0 0.474134,0.3612448 0.451556,0.6547562 4.583293,0.6547562 1.422402,0 3.747915,-0.112889 0.361245,-0.022578 0.564445,-0.225778 0.203201,-0.2032002 0.203201,-0.5870228 0,-1.7836463 -0.180623,-3.0254253 -0.180622,-1.241779 -0.812801,-1.4224014 -0.496711,-0.1354668 -0.496711,-0.4064005 0,-0.1580446 0.2032,-0.2709336 0.225778,-0.112889 0.587023,-0.112889 0.699912,0 1.286934,0.2935114 0.609601,0.2709336 0.948268,0.6999119 0.361245,0.4064004 0.361245,0.7676452 0,0.1806224 -0.04516,0.2483558 -0.225778,0.451556 -0.338667,2.9802697 -0.06773,0.7450674 0.835379,0.7450674 0.835378,-0.022578 1.309512,-0.1580446 0.496712,-0.1354668 1.061157,-0.3838226 l 0.428978,-0.1806224 q 0.248356,-0.112889 0.609601,-0.112889 0.496711,0 0.948267,0.2483558 0.451556,0.225778 0.72249,0.5870228 0.270934,0.3612448 0.270934,0.677334 0,0.2709337 -0.248356,0.451556 -0.225778,0.158045 -0.72249,0.158045 -0.248356,0 -0.383822,-0.02258 -0.474134,-0.06773 -2.190047,-0.06773 l -1.919113,0.02258 q -0.767645,0 -0.812801,0.767645 -0.06773,1.986847 -0.06773,3.951116 0,2.483558 0.09031,4.831649 0.02258,0.745067 -0.225778,1.354668 -0.248356,0.587023 -0.632179,0.903112 -0.383822,0.338667 -0.745067,0.338667 -0.541867,0 -0.632179,-0.72249 z M 103.91919,9.8213301 q -0.54187,0.045156 -1.10631,-0.3386671 -0.54187,-0.4064004 -0.92569,-0.9482676 -0.36125,-0.5418672 -0.36125,-0.8579564 0,-0.2032002 0.18063,-0.2032002 0.15804,0 0.36124,0.112889 0.8128,0.451556 1.98685,0.6999118 1.19662,0.225778 3.36409,0.225778 0.76765,0 1.19662,-0.022578 1.21921,-0.022578 2.05458,-0.2032002 0.85796,-0.1806224 1.76107,-0.4741338 0.8128,-0.2483558 1.08374,-0.2935114 0.36124,-0.045156 0.88053,0.1806224 0.54187,0.225778 0.92569,0.564445 0.4064,0.338667 0.4064,0.6096006 0,0.3838226 -0.92569,0.4064004 -0.8128,0.022578 -2.32551,0.022578 -2.09974,0 -3.70276,0.045156 -1.71591,0.067733 -2.55129,0.1580446 -0.83538,0.067733 -1.58045,0.2032002 -0.54187,0.090311 -0.72249,0.1128887 z m -1.71591,8.9633869 q -0.15805,0.04516 -0.49671,0.04516 -0.69991,0 -1.39983,-0.383823 -0.699908,-0.4064 -1.174042,-0.92569 -0.451556,-0.519289 -0.451556,-0.812801 0,-0.112889 0.09031,-0.158044 0.09031,-0.04516 0.270934,0 0.180622,0.04516 0.677334,0.225778 0.51929,0.158044 1.64818,0.316089 0.69991,0.112889 2.8448,0.112889 2.43841,0 4.33494,-0.09031 1.91911,-0.04516 4.10916,-0.31609 2.19005,-0.293511 2.98027,-0.519289 0.2032,-0.06773 0.42898,-0.06773 0.63218,0 1.26436,0.451556 0.65475,0.428978 0.94826,0.880534 0.13547,0.2032 0.13547,0.361245 0,0.383822 -0.8128,0.383822 -0.31609,0 -0.79022,-0.06773 -1.24178,-0.248356 -5.10259,-0.248356 -1.03858,0 -3.07058,0.04516 -2.6416,0.112889 -3.97369,0.293511 -1.30951,0.180623 -2.46098,0.474134 z m 36.0504,-13.4112137 q -0.18063,-0.1580446 -0.27094,-0.2935114 -0.0677,-0.1580446 -0.0903,-0.2032002 -0.18062,-0.3612448 -0.45155,-0.6321784 -0.27094,-0.2709336 -0.94827,-0.6096007 -0.29351,-0.1354668 -0.29351,-0.3160892 0,-0.2032002 0.33866,-0.2032002 0.2032,0 0.4064,0.090311 1.37725,0.5192894 2.00943,1.0385789 0.63218,0.4967116 0.63218,0.8805342 0,0.225778 -0.2032,0.3838226 -0.18063,0.1354668 -0.45156,0.1354668 -0.38382,0 -0.67733,-0.2709336 z m -1.94169,1.3998237 q -0.13547,-0.1806225 -0.27094,-0.4967117 -0.15804,-0.3838226 -0.42898,-0.677334 -0.24835,-0.2935114 -0.99342,-0.677334 -0.27093,-0.1354668 -0.27093,-0.338667 0,-0.090311 0.0677,-0.1354668 0.0903,-0.067733 0.24836,-0.067733 0.22577,0 0.42897,0.090311 1.33209,0.5870228 1.91912,1.12889 0.6096,0.5418672 0.6096,0.9482676 0,0.2483559 -0.2032,0.4064005 -0.18062,0.1354668 -0.45156,0.1354668 -0.42898,0 -0.65475,-0.3160892 z m -14.67557,12.688724 q -0.38383,0.180622 -0.81281,0.180622 -0.2032,0 -0.33866,-0.04515 -0.11289,-0.06773 -0.11289,-0.158045 0,-0.248356 0.69991,-0.541867 2.39325,-1.038579 3.97369,-2.754492 1.60303,-1.73849 2.75449,-4.605871 0.54187,-1.354668 0.54187,-2.5964472 0,-1.354668 -0.63218,-1.7836462 -0.24835,-0.1806224 -0.24835,-0.3160892 0,-0.090311 0.11289,-0.1354669 0.11289,-0.067733 0.27093,-0.067733 0.36125,0 0.83538,0.2257781 0.47413,0.2032002 0.94827,0.677334 0.6096,0.6096006 0.6096,1.4901348 0,0.7902231 -0.47414,1.8965346 -0.45155,1.083735 -1.37724,2.619025 -1.19663,1.986847 -3.00285,3.544715 -1.78365,1.557868 -3.74791,2.370669 z m 16.84303,-1.693335 q -0.27093,-1.986847 -0.99342,-3.860804 -0.72249,-1.873957 -1.6256,-3.318937 -0.90311,-1.444979 -1.78365,-2.1900464 -0.45155,-0.3838226 -0.45155,-0.677334 0,-0.1806224 0.18062,-0.1806224 0.29351,0 0.8128,0.3838226 1.15147,0.8353786 2.34809,2.3255132 1.19663,1.490135 2.07716,3.18347 0.90311,1.670757 1.17405,3.048003 0.0452,0.270934 0.0452,0.406401 0,0.654756 -0.38382,1.151468 -0.38382,0.474133 -0.79022,0.474133 -0.22578,0 -0.40641,-0.180622 -0.15804,-0.180622 -0.2032,-0.564445 z m 11.05678,-7.9473859 q -0.8128,-1.4449793 -1.4224,-2.1448911 -0.60961,-0.6999118 -1.58045,-1.1966235 -0.6096,-0.3160892 -0.6096,-0.564445 0,-0.2032002 0.45155,-0.2032002 0.29352,0 0.65476,0.090311 1.19662,0.2935114 2.21263,0.903112 1.016,0.5870229 1.64817,1.3772459 0.47414,0.564445 0.47414,1.1966234 0,0.4967116 -0.29351,0.8353784 -0.27094,0.338667 -0.65476,0.338667 -0.54187,0 -0.88053,-0.6321779 z M 149.08467,20.70383 q -0.58702,0 -1.10631,-0.4064 -0.49671,-0.406401 -0.8128,-0.948268 -0.31609,-0.541867 -0.31609,-0.903112 0,-0.293511 0.2032,-0.293511 0.2032,0 0.54187,0.270933 0.42897,0.361245 1.19662,0.361245 1.6256,0 4.064,-1.535291 2.46098,-1.53529 4.96712,-4.289782 2.52871,-2.777069 4.33494,-6.2766283 0.49671,-0.9256898 0.8128,-0.9256898 0.2032,0 0.2032,0.3838226 0,0.4741338 -0.31609,1.1966235 -1.53529,3.544715 -4.2672,6.615296 -2.73192,3.07058 -5.44125,4.92196 -2.70934,1.828802 -4.06401,1.828802 z"
       id="text1"
       aria-label="バス オニバン" />
  </g>
</svg>
