<?xml version="1.0" encoding="UTF-8" standalone="no"?>
<!-- Created with Inkscape (http://www.inkscape.org/) -->

<svg
   width="1023.9998"
   height="255.99998"
   viewBox="0 0 270.93331 67.733329"
   version="1.1"
   id="svg1"
   xmlns="http://www.w3.org/2000/svg"
   xmlns:svg="http://www.w3.org/2000/svg"
   xmlns:rdf="http://www.w3.org/1999/02/22-rdf-syntax-ns#"
   xmlns:cc="http://creativecommons.org/ns#"
   xmlns:dc="http://purl.org/dc/elements/1.1/">
  <title
     id="title1">logo: anirbanbasu</title>
  <defs
     id="defs1" />
  <g
     id="layer1">
    <g
       id="g1">
      <path
         id="rect1"
         style="fill:none;stroke:#000000;stroke-width:0.4;stroke-dasharray:none;stroke-opacity:1"
         d="M 8.33748,8.33748 V 33.3375 H 27.51667 V 27.51667 H 33.3375 V 8.33748 Z" />
      <path
         id="rect1-4"
         style="fill:#b3b3b3;fill-opacity:1;stroke:#000000;stroke-width:0.4;stroke-dasharray:none;stroke-opacity:1"
         d="m 34.39583,8.33748 v 19.17919 h 5.82084 V 33.3375 H 59.39586 V 8.33748 Z" />
      <path
         id="rect1-8"
         style="fill:#b3b3b3;fill-opacity:1;stroke:#000000;stroke-width:0.4;stroke-dasharray:none;stroke-opacity:1"
         d="M 8.33748,34.39583 V 59.39586 H 33.3375 V 40.21667 h -5.82083 v -5.82084 z" />
      <path
         id="rect1-85"
         style="fill:none;stroke:#000000;stroke-width:0.4;stroke-dasharray:none;stroke-opacity:1"
         d="m 40.21667,34.39583 v 5.82084 H 34.39583 V 59.39586 H 59.39586 V 34.39583 Z" />
      <rect
         style="fill:#b3b3b3;fill-opacity:1;stroke:none;stroke-width:0.366973;stroke-opacity:1"
         id="rect2"
         width="11.1"
         height="11.100001"
         x="28.316671"
         y="28.316671" />
      <path
         style="fill:#4d4d4d;stroke-width:0.4"
         d="m 15.6561,25.346735 c -2.180763,-1.480218 1.645069,-6.578759 3.080443,-8.128282 2.526449,-2.813816 5.955683,0.39551 5.996872,0.705988 0.229591,0.533422 -1.752948,1.952795 -0.458006,4.138711 0.3865,0.60525 0.763124,1.208916 1.461824,1.582826 0.492487,0.259776 1.210443,0.513518 0.833234,1.097697 -0.348521,0.502404 -1.042818,0.335668 -1.53127,0.173027 -1.248534,-0.459564 -1.90717,-1.730306 -2.438565,-2.864163 -0.286507,-0.74549 -4.745394,4.786888 -6.944532,3.294196 z m 1.011841,-1.572075 c 0.242982,0.428196 1.139147,-0.303005 1.616169,-0.570534 6.46086,-4.903135 4.494659,-8.601637 0.895308,-3.86497 -1.010856,1.370045 -2.867742,4.020574 -2.51148,4.435504 z"
         id="text1"
         aria-label="a" />
      <path
         style="fill:#4d4d4d;stroke-width:0.4"
         d="m 44.377507,55.790427 c -0.900031,0.164659 -1.818299,-1.158302 -0.527806,-1.441284 2.342762,-0.467405 4.88137,-2.637931 5.598377,-3.736045 3.487592,-4.542175 -3.619687,-2.187148 -5.748445,2.522695 -0.341465,0.973793 -1.600988,0.469807 -1.753795,-0.3526 -0.24525,-0.869015 4.481273,-17.009326 6.486927,-14.539254 0.308461,0.483734 -1.37264,2.752453 -3.782077,10.214093 -0.08861,0.308693 -0.575323,1.326893 -0.237957,1.147593 9.996032,-9.131094 9.861514,4.064626 -0.03522,6.184802 z"
         id="text1-9"
         aria-label="b" />
    </g>
  </g>
  <g
     id="layer2">
    <rect
       style="display:inline;opacity:1;fill:#4d4d4d;fill-opacity:1;stroke:none;stroke-width:0.119438"
       id="rect3"
       width="1"
       height="48"
       x="68.093559"
       y="9.8666697" />
    <g
       id="text3"
       style="fill:#4d4d4d;stroke-width:0.4"
       aria-label="anirbanbasu">
      <path
         d="m 77.855845,32.963559 q 0,-2.370665 0.931333,-4.148664 0.959554,-1.806221 2.624664,-2.765775 1.693332,-0.987777 3.809997,-0.987777 2.201332,0 3.781775,1.015999 1.608665,1.015999 2.31422,2.596442 V 25.28712 h 1.975555 v 15.409322 h -1.975555 v -3.414887 q -0.733777,1.580444 -2.342442,2.624665 -1.580443,1.015999 -3.781775,1.015999 -2.088443,0 -3.781775,-0.987777 -1.66511,-0.987777 -2.624664,-2.793998 -0.931333,-1.80622 -0.931333,-4.176885 z m 13.461989,0.02822 q 0,-1.862665 -0.761999,-3.273775 -0.761999,-1.41111 -2.088443,-2.17311 -1.298221,-0.761999 -2.878664,-0.761999 -1.636888,0 -2.935109,0.733777 -1.298221,0.733777 -2.060221,2.144887 -0.733777,1.382888 -0.733777,3.301998 0,1.890887 0.733777,3.330219 0.762,1.41111 2.060221,2.17311 1.298221,0.733777 2.935109,0.733777 1.580443,0 2.878664,-0.761999 1.326444,-0.762 2.088443,-2.17311 0.761999,-1.41111 0.761999,-3.273775 z m 14.245136,-7.986883 q 2.76577,0 4.51555,1.721554 1.74978,1.693332 1.74978,4.938886 v 9.031104 h -1.94733 v -8.805327 q 0,-2.511776 -1.27,-3.838219 -1.24178,-1.326444 -3.41489,-1.326444 -2.22955,0 -3.556,1.41111 -1.32644,1.41111 -1.32644,4.148664 V 40.69644 H 98.338085 V 25.28712 h 1.975555 v 2.624665 q 0.73378,-1.41111 2.11666,-2.144887 1.38289,-0.762 3.13267,-0.762 z m 12.1567,-2.624664 q -0.59267,0 -1.016,-0.423333 -0.42334,-0.423333 -0.42334,-1.044222 0,-0.620888 0.42334,-1.015999 0.42333,-0.423333 1.016,-0.423333 0.59266,0 1.016,0.423333 0.42333,0.395111 0.42333,1.015999 0,0.620889 -0.42333,1.044222 -0.42334,0.423333 -1.016,0.423333 z m 0.98777,2.906886 V 40.69644 h -1.97555 V 25.28712 Z m 6.99206,2.737554 q 0.64911,-1.439333 1.97555,-2.229554 1.35467,-0.790222 3.302,-0.790222 v 2.060221 h -0.53622 q -2.14489,0 -3.44311,1.15711 -1.29822,1.15711 -1.29822,3.866442 v 8.607771 h -1.97556 V 25.28712 h 1.97556 z m 10.71737,0.677332 q 0.762,-1.608665 2.34244,-2.624664 1.60866,-1.015999 3.78177,-1.015999 2.11667,0 3.78178,0.987777 1.66511,0.959554 2.59644,2.765775 0.95956,1.777999 0.95956,4.148664 0,2.370665 -0.95956,4.176885 -0.93133,1.806221 -2.62466,2.793998 -1.66511,0.987777 -3.75356,0.987777 -2.20133,0 -3.80999,-0.987777 -1.58045,-1.015999 -2.31422,-2.624664 v 3.386664 h -1.94734 V 19.812013 h 1.94734 z m 11.45821,4.261553 q 0,-1.91911 -0.762,-3.301998 -0.73378,-1.41111 -2.032,-2.144887 -1.29822,-0.733777 -2.93511,-0.733777 -1.58044,0 -2.90688,0.761999 -1.29823,0.762 -2.06022,2.17311 -0.762,1.41111 -0.762,3.273775 0,1.862665 0.762,3.273775 0.76199,1.41111 2.06022,2.17311 1.32644,0.761999 2.90688,0.761999 1.63689,0 2.93511,-0.733777 1.29822,-0.762 2.032,-2.17311 0.762,-1.439332 0.762,-3.330219 z m 5.27048,0 q 0,-2.370665 0.93133,-4.148664 0.95955,-1.806221 2.62466,-2.765775 1.69334,-0.987777 3.81,-0.987777 2.20133,0 3.78178,1.015999 1.60866,1.015999 2.31422,2.596442 V 25.28712 h 1.97555 v 15.409322 h -1.97555 v -3.414887 q -0.73378,1.580444 -2.34245,2.624665 -1.58044,1.015999 -3.78177,1.015999 -2.08844,0 -3.78178,-0.987777 -1.66511,-0.987777 -2.62466,-2.793998 -0.93133,-1.80622 -0.93133,-4.176885 z m 13.46199,0.02822 q 0,-1.862665 -0.762,-3.273775 -0.762,-1.41111 -2.08845,-2.17311 -1.29822,-0.761999 -2.87866,-0.761999 -1.63689,0 -2.93511,0.733777 -1.29822,0.733777 -2.06022,2.144887 -0.73378,1.382888 -0.73378,3.301998 0,1.890887 0.73378,3.330219 0.762,1.41111 2.06022,2.17311 1.29822,0.733777 2.93511,0.733777 1.58044,0 2.87866,-0.761999 1.32645,-0.762 2.08845,-2.17311 0.762,-1.41111 0.762,-3.273775 z m 14.24512,-7.986883 q 2.76578,0 4.51556,1.721554 1.74977,1.693332 1.74977,4.938886 v 9.031104 h -1.94733 v -8.805327 q 0,-2.511776 -1.27,-3.838219 -1.24178,-1.326444 -3.41488,-1.326444 -2.22956,0 -3.556,1.41111 -1.32645,1.41111 -1.32645,4.148664 v 8.410216 h -1.97555 V 25.28712 h 1.97555 v 2.624665 q 0.73378,-1.41111 2.11667,-2.144887 1.38289,-0.762 3.13266,-0.762 z"
         id="path1" />
      <path
         d="m 196.33959,27.178008 q 0.67734,-1.100666 1.94734,-1.777999 1.26999,-0.677333 2.90688,-0.677333 1.94733,0 3.52778,0.987777 1.58044,0.987777 2.48355,2.82222 0.93133,1.834443 0.93133,4.261553 0,2.427109 -0.93133,4.289774 -0.90311,1.834443 -2.48355,2.850442 -1.58045,0.987777 -3.52778,0.987777 -1.66511,0 -2.90688,-0.64911 -1.24178,-0.677333 -1.94734,-1.777999 v 2.201332 H 191.5136 V 19.812013 h 4.82599 z m 6.88622,5.616218 q 0,-1.806221 -1.016,-2.82222 -0.98778,-1.044222 -2.45533,-1.044222 -1.43933,0 -2.45533,1.044222 -0.98778,1.044221 -0.98778,2.850442 0,1.806221 0.98778,2.850442 1.016,1.044221 2.45533,1.044221 1.43933,0 2.45533,-1.044221 1.016,-1.072444 1.016,-2.878664 z m 7.0203,0 q 0,-2.42711 0.90311,-4.261553 0.93134,-1.834443 2.51178,-2.82222 1.58044,-0.987777 3.52777,-0.987777 1.66511,0 2.90689,0.677333 1.27,0.677333 1.94733,1.777999 v -2.229554 h 4.826 v 15.747988 h -4.826 v -2.229554 q -0.70555,1.100666 -1.97555,1.777998 -1.24178,0.677333 -2.90689,0.677333 -1.91911,0 -3.49955,-0.987777 -1.58044,-1.015999 -2.51178,-2.850442 -0.90311,-1.862665 -0.90311,-4.289774 z m 11.79688,0.02822 q 0,-1.806221 -1.016,-2.850442 -0.98777,-1.044222 -2.42711,-1.044222 -1.43933,0 -2.45533,1.044222 -0.98777,1.015999 -0.98777,2.82222 0,1.80622 0.98777,2.878664 1.016,1.044221 2.45533,1.044221 1.43934,0 2.42711,-1.044221 1.016,-1.044221 1.016,-2.850442 z m 15.26118,8.099771 q -2.06022,0 -3.66889,-0.705555 -1.60866,-0.705555 -2.53999,-1.919109 -0.93134,-1.241777 -1.04423,-2.765776 h 4.76956 q 0.0847,0.818444 0.762,1.326443 0.67733,0.508 1.66511,0.508 0.90311,0 1.38288,-0.338666 0.508,-0.366889 0.508,-0.931333 0,-0.677333 -0.70555,-0.987777 -0.70556,-0.338666 -2.286,-0.733777 -1.69333,-0.395111 -2.82222,-0.818444 -1.12889,-0.451555 -1.94733,-1.382888 -0.81845,-0.959555 -0.81845,-2.56822 0,-1.354666 0.73378,-2.455332 0.762,-1.128888 2.20133,-1.777998 1.46756,-0.649111 3.47133,-0.649111 2.96333,0 4.65667,1.467555 1.72155,1.467554 1.97555,3.894663 h -4.45911 q -0.11289,-0.818444 -0.73377,-1.298221 -0.59267,-0.479777 -1.58045,-0.479777 -0.84666,0 -1.29822,0.338666 -0.45155,0.310444 -0.45155,0.874888 0,0.677333 0.70555,1.016 0.73378,0.338666 2.25778,0.677332 1.74977,0.451556 2.85044,0.903111 1.10066,0.423333 1.91911,1.41111 0.84666,0.959555 0.87489,2.596442 0,1.382888 -0.79022,2.483554 -0.762,1.072443 -2.22956,1.693332 -1.43933,0.620888 -3.35844,0.620888 z M 262.72534,24.948452 V 40.69644 h -4.826 v -2.144888 q -0.73378,1.044222 -2.00377,1.693332 -1.24178,0.620889 -2.76578,0.620889 -1.80622,0 -3.18911,-0.790222 -1.38289,-0.818444 -2.14489,-2.342442 -0.762,-1.523999 -0.762,-3.58422 v -9.200437 h 4.79778 v 8.551327 q 0,1.580443 0.81844,2.455331 0.81845,0.874888 2.20133,0.874888 1.41111,0 2.22956,-0.874888 0.81844,-0.874888 0.81844,-2.455331 v -8.551327 z"
         id="path2" />
    </g>
  </g>
  <metadata
     id="metadata1">
    <rdf:RDF>
      <cc:Work
         rdf:about="">
        <dc:title>logo: anirbanbasu</dc:title>
        <dc:creator>
          <cc:Agent>
            <dc:title>Anirban Basu</dc:title>
          </cc:Agent>
        </dc:creator>
      </cc:Work>
    </rdf:RDF>
  </metadata>
</svg>
